<?xml version="1.0" encoding="UTF-8"?>
<svg xmlns="http://www.w3.org/2000/svg" xmlns:xlink="http://www.w3.org/1999/xlink" viewBox="0 0 2000 2000">
  <defs>
    <style>
      .cls-1 {
        fill: #004c69;
      }

      .cls-1, .cls-2, .cls-3, .cls-4, .cls-5 {
        mix-blend-mode: screen;
      }

      .cls-6 {
        fill: url(#linear-gradient-8);
      }

      .cls-7 {
        fill: url(#linear-gradient-7);
      }

      .cls-8 {
        fill: url(#linear-gradient-5);
      }

      .cls-9 {
        fill: url(#linear-gradient-6);
      }

      .cls-10 {
        fill: url(#linear-gradient-9);
      }

      .cls-11 {
        fill: url(#linear-gradient-3);
      }

      .cls-12 {
        fill: url(#linear-gradient-2);
      }

      .cls-2 {
        fill: url(#linear-gradient-25);
        opacity: .7;
      }

      .cls-13 {
        fill: url(#linear-gradient-4);
      }

      .cls-13, .cls-14, .cls-15, .cls-16 {
        mix-blend-mode: multiply;
      }

      .cls-3 {
        fill: #005575;
      }

      .cls-17 {
        fill: url(#linear-gradient);
      }

      .cls-18 {
        isolation: isolate;
      }

      .cls-14 {
        fill: #9fcbd6;
      }

      .cls-15 {
        fill: #f5d5a4;
      }

      .cls-4 {
        fill: #92d3eb;
      }

      .cls-19 {
        fill: url(#linear-gradient-10);
      }

      .cls-20 {
        fill: url(#linear-gradient-11);
      }

      .cls-21 {
        fill: url(#linear-gradient-12);
      }

      .cls-22 {
        fill: url(#linear-gradient-13);
      }

      .cls-23 {
        fill: url(#linear-gradient-19);
      }

      .cls-24 {
        fill: url(#linear-gradient-14);
      }

      .cls-25 {
        fill: url(#linear-gradient-21);
      }

      .cls-26 {
        fill: url(#linear-gradient-20);
      }

      .cls-27 {
        fill: url(#linear-gradient-22);
      }

      .cls-28 {
        fill: url(#linear-gradient-23);
      }

      .cls-29 {
        fill: url(#linear-gradient-15);
      }

      .cls-30 {
        fill: url(#linear-gradient-16);
      }

      .cls-31 {
        fill: url(#linear-gradient-17);
      }

      .cls-32 {
        fill: url(#linear-gradient-18);
      }

      .cls-33 {
        fill: url(#linear-gradient-24);
      }

      .cls-5 {
        fill: #ab4700;
      }

      .cls-16 {
        fill: #edc993;
      }
    </style>
    <linearGradient id="linear-gradient" x1="282.57" y1="257.13" x2="1717.41" y2="1691.97" gradientUnits="userSpaceOnUse">
      <stop offset="0" stop-color="#286891"/>
      <stop offset=".35" stop-color="#20597f"/>
      <stop offset="1" stop-color="#0e3655"/>
    </linearGradient>
    <linearGradient id="linear-gradient-2" x1="210.88" y1="940.38" x2="1789.18" y2="940.38" gradientUnits="userSpaceOnUse">
      <stop offset="0" stop-color="#fafafa"/>
      <stop offset="1" stop-color="#cdeffa"/>
    </linearGradient>
    <linearGradient id="linear-gradient-3" x1="526.86" y1="1107.84" x2="1473.15" y2="2054.13" xlink:href="#linear-gradient-2"/>
    <linearGradient id="linear-gradient-4" x1="530.39" y1="1118.43" x2="1469.62" y2="2057.66" gradientUnits="userSpaceOnUse">
      <stop offset="0" stop-color="#b0ccd6"/>
      <stop offset=".04" stop-color="#b4cfd9"/>
      <stop offset=".24" stop-color="#c1dae3"/>
      <stop offset=".49" stop-color="#c8e1e9"/>
      <stop offset="1" stop-color="#cbe3eb"/>
    </linearGradient>
    <linearGradient id="linear-gradient-5" x1="578.06" y1="98.86" x2="1421.98" y2="942.79" gradientUnits="userSpaceOnUse">
      <stop offset="0" stop-color="#65cfe5"/>
      <stop offset=".01" stop-color="#63cde4"/>
      <stop offset=".24" stop-color="#49b9d2"/>
      <stop offset=".48" stop-color="#37aac5"/>
      <stop offset=".73" stop-color="#2ca1bd"/>
      <stop offset="1" stop-color="#299fbb"/>
    </linearGradient>
    <linearGradient id="linear-gradient-6" x1="263.04" y1="518.14" x2="312.64" y2="518.14" gradientUnits="userSpaceOnUse">
      <stop offset="0" stop-color="#fd6120"/>
      <stop offset=".01" stop-color="#fb5f1f"/>
      <stop offset=".32" stop-color="#ea4d1b"/>
      <stop offset=".64" stop-color="#e04218"/>
      <stop offset="1" stop-color="#dd3f18"/>
    </linearGradient>
    <linearGradient id="linear-gradient-7" x1="326.81" y1="518.14" x2="376.41" y2="518.14" gradientUnits="userSpaceOnUse">
      <stop offset="0" stop-color="#286891"/>
      <stop offset=".01" stop-color="#27668f"/>
      <stop offset=".24" stop-color="#1c5175"/>
      <stop offset=".48" stop-color="#144263"/>
      <stop offset=".73" stop-color="#0f3858"/>
      <stop offset="1" stop-color="#0e3655"/>
    </linearGradient>
    <linearGradient id="linear-gradient-8" x1="390.55" y1="518.14" x2="440.15" y2="518.14" xlink:href="#linear-gradient-2"/>
    <linearGradient id="linear-gradient-9" x1="260.31" y1="864.74" x2="648.51" y2="864.74" xlink:href="#linear-gradient-6"/>
    <linearGradient id="linear-gradient-10" x1="344.19" y1="843.07" x2="564.64" y2="1063.52" xlink:href="#linear-gradient-5"/>
    <linearGradient id="linear-gradient-11" x1="260.31" y1="1041.86" x2="648.51" y2="1041.86" xlink:href="#linear-gradient-6"/>
    <linearGradient id="linear-gradient-12" x1="260.31" y1="1130.45" x2="648.51" y2="1130.45" xlink:href="#linear-gradient-6"/>
    <linearGradient id="linear-gradient-13" x1="260.31" y1="1218.99" x2="648.51" y2="1218.99" xlink:href="#linear-gradient-6"/>
    <linearGradient id="linear-gradient-14" x1="344.17" y1="1197.32" x2="564.66" y2="1417.81" xlink:href="#linear-gradient-5"/>
    <linearGradient id="linear-gradient-15" x1="770.43" y1="825.22" x2="1276.93" y2="1331.73" xlink:href="#linear-gradient-5"/>
    <linearGradient id="linear-gradient-16" x1="757.24" y1="1128.02" x2="1290.12" y2="1128.02" xlink:href="#linear-gradient-6"/>
    <linearGradient id="linear-gradient-17" x1="828.5" y1="1030.75" x2="1203.21" y2="1405.46" xlink:href="#linear-gradient-7"/>
    <linearGradient id="linear-gradient-18" x1="1377.39" y1="1237.67" x2="1461.74" y2="1237.67" xlink:href="#linear-gradient-6"/>
    <linearGradient id="linear-gradient-19" x1="1407.12" y1="1004.42" x2="1644.64" y2="1241.94" xlink:href="#linear-gradient-5"/>
    <linearGradient id="linear-gradient-20" x1="1548.5" y1="1109.72" x2="1715.82" y2="1277.03" xlink:href="#linear-gradient-7"/>
    <linearGradient id="linear-gradient-21" x1="210.88" y1="660.96" x2="1789.18" y2="660.96" xlink:href="#linear-gradient-6"/>
    <linearGradient id="linear-gradient-22" x1="260.31" y1="666.29" x2="536.59" y2="666.29" xlink:href="#linear-gradient-2"/>
    <linearGradient id="linear-gradient-23" x1="678.16" y1="666.29" x2="1215.19" y2="666.29" xlink:href="#linear-gradient-2"/>
    <linearGradient id="linear-gradient-24" x1="1315.62" y1="666.29" x2="1689.76" y2="666.29" xlink:href="#linear-gradient-2"/>
    <linearGradient id="linear-gradient-25" x1="733.72" y1="340.69" x2="696.92" y2="1766.19" gradientUnits="userSpaceOnUse">
      <stop offset="0" stop-color="#306173"/>
      <stop offset=".17" stop-color="#2e5d6e"/>
      <stop offset=".35" stop-color="#285161"/>
      <stop offset=".55" stop-color="#1f3f4a"/>
      <stop offset=".75" stop-color="#12242b"/>
      <stop offset=".95" stop-color="#010303"/>
      <stop offset=".97" stop-color="#000"/>
    </linearGradient>
  </defs>
  <g class="cls-18">
    <g id="Capa_1" data-name="Capa 1">
      <g>
        <path class="cls-17" d="M148.45,1525.93c0,41.87,33.11,75.76,74.06,75.76h1554.99c40.89,0,74.06-33.89,74.06-75.76V423.18c0-41.88-33.17-75.77-74.06-75.77H222.5c-40.95,0-74.06,33.89-74.06,75.77v1102.75Z"/>
        <path class="cls-1" d="M1777.49,347.41H222.5c-40.95,0-74.06,33.89-74.06,75.77v1092.89c0,.1.03.18.03.27V438.77c0-41.87,33.11-75.76,74.06-75.76h1554.99c40.81,0,73.87,33.75,74.03,75.49v-15.31c0-41.88-33.17-75.77-74.06-75.77Z"/>
        <path class="cls-12" d="M1777.49,1420.01c7.56,0,11.68-4.61,11.68-6.56V467.28c0-1.92-4.12-6.54-11.68-6.54H222.5c-7.56,0-11.63,4.62-11.63,6.54v946.17c0,1.95,4.07,6.56,11.63,6.56h1554.99Z"/>
        <path class="cls-17" d="M148.45,1525.93c0,41.87,33.11,75.76,74.06,75.76h1554.99c40.89,0,74.06-33.89,74.06-75.76V423.18c0-41.88-33.17-75.77-74.06-75.77H222.5c-40.95,0-74.06,33.89-74.06,75.77v1102.75Z"/>
        <path class="cls-12" d="M1777.49,1420.01c7.56,0,11.68-4.61,11.68-6.56V467.28c0-1.92-4.12-6.54-11.68-6.54H222.5c-7.56,0-11.63,4.62-11.63,6.54v946.17c0,1.95,4.07,6.56,11.63,6.56h1554.99Z"/>
        <path class="cls-11" d="M80.12,1581.03c0,39.49,37.56,71.56,83.83,71.56h1672.07c46.32,0,83.86-32.07,83.86-71.56h0c0-39.58-37.54-71.67-83.86-71.67H163.95c-46.27,0-83.83,32.09-83.83,71.67h0Z"/>
        <path class="cls-4" d="M163.98,1530.08h1672.07c42.12,0,76.65,26.62,82.63,61.19.57-3.37,1.2-6.73,1.2-10.24,0-39.58-37.54-71.67-83.86-71.67H163.95c-46.27,0-83.83,32.09-83.83,71.67,0,3.59.63,7.01,1.23,10.47,5.87-34.68,40.46-61.42,82.63-61.42Z"/>
        <path class="cls-13" d="M1836.02,1624.63H163.95c-40.67,0-74.55-24.79-82.17-57.6-1.06,4.53-1.66,9.2-1.66,13.99,0,39.49,37.56,71.56,83.83,71.56h1672.07c46.32,0,83.86-32.07,83.86-71.56,0-4.79-.6-9.46-1.64-13.99-7.65,32.81-41.52,57.6-82.22,57.6Z"/>
        <path class="cls-8" d="M1777.49,460.74H222.5c-7.56,0-11.63,4.62-11.63,6.54v108.32h1578.3v-108.32c0-1.92-4.12-6.54-11.68-6.54Z"/>
        <path class="cls-9" d="M312.64,518.16c0,13.96-11.14,25.26-24.76,25.26s-24.84-11.3-24.84-25.26,11.14-25.3,24.84-25.3,24.76,11.3,24.76,25.3Z"/>
        <path class="cls-7" d="M376.41,518.16c0,13.96-11.14,25.26-24.79,25.26s-24.81-11.3-24.81-25.26,11.08-25.3,24.81-25.3,24.79,11.3,24.79,25.3Z"/>
        <path class="cls-6" d="M440.15,518.16c0,13.96-11.11,25.26-24.79,25.26s-24.81-11.3-24.81-25.26,11.14-25.3,24.81-25.3,24.79,11.3,24.79,25.3Z"/>
        <path class="cls-5" d="M267.41,523.4c0-14,11.14-25.3,24.84-25.3,6.09,0,11.52,2.51,15.83,6.26-4.45-6.78-11.65-11.51-20.2-11.51-13.7,0-24.84,11.3-24.84,25.3,0,7.7,3.58,14.36,8.93,18.99-2.65-4.01-4.56-8.56-4.56-13.74Z"/>
        <path class="cls-1" d="M331.18,523.4c0-14,11.08-25.3,24.81-25.3,6.12,0,11.52,2.51,15.86,6.26-4.45-6.77-11.66-11.51-20.23-11.51-13.73,0-24.81,11.3-24.81,25.3,0,7.71,3.58,14.37,8.9,19-2.62-4.01-4.53-8.56-4.53-13.76Z"/>
        <path class="cls-4" d="M394.92,523.4c0-14,11.14-25.3,24.81-25.3,6.11,0,11.55,2.51,15.86,6.26-4.45-6.78-11.66-11.51-20.23-11.51-13.67,0-24.81,11.3-24.81,25.3,0,7.71,3.58,14.36,8.93,18.99-2.65-4.01-4.56-8.56-4.56-13.74Z"/>
        <rect class="cls-10" x="260.31" y="838.41" width="388.2" height="52.67"/>
        <rect class="cls-19" x="260.31" y="926.95" width="388.2" height="52.7"/>
        <rect class="cls-20" x="260.31" y="1015.51" width="388.2" height="52.7"/>
        <rect class="cls-21" x="260.31" y="1104.11" width="388.2" height="52.69"/>
        <rect class="cls-22" x="260.31" y="1192.62" width="388.2" height="52.74"/>
        <rect class="cls-24" x="260.31" y="1281.17" width="388.2" height="52.78"/>
        <rect class="cls-29" x="757.24" y="838.41" width="532.88" height="480.14"/>
        <polygon class="cls-30" points="757.24 1124.83 799.94 1040.22 853.03 1116.6 946.69 937.5 1023.72 1083.36 1065.38 1040.22 1112.19 1083.36 1171.51 993.74 1238.09 1137.23 1290.12 1016.56 1290.12 1318.54 757.24 1318.54 757.24 1124.83"/>
        <polygon class="cls-5" points="1238.09 1137.23 1171.51 993.74 1112.19 1083.36 1065.38 1040.22 1023.72 1083.36 946.69 937.5 853.03 1116.6 799.94 1040.22 757.24 1124.83 757.24 1133.56 799.94 1048.95 853.03 1125.33 946.69 946.23 1023.72 1092.1 1065.38 1048.95 1112.19 1092.1 1171.51 1002.48 1238.09 1145.97 1290.12 1025.3 1290.12 1016.56 1238.09 1137.23"/>
        <polygon class="cls-31" points="757.24 1183.31 865.5 993.74 927.12 1183.31 961.54 1141.9 1010.54 1207.21 1106.54 1015.51 1168.37 1183.31 1240.17 1083.36 1290.12 1187.95 1290.12 1318.54 757.24 1318.54 757.24 1183.31"/>
        <polygon class="cls-1" points="1240.17 1083.36 1168.37 1183.31 1106.54 1015.51 1010.54 1207.21 961.54 1141.9 927.12 1183.31 865.5 993.74 757.24 1183.31 757.24 1192.05 865.5 1002.48 927.12 1192.05 961.54 1150.64 1010.54 1215.95 1106.54 1024.25 1168.37 1192.05 1240.17 1092.1 1290.12 1196.69 1290.12 1187.95 1240.17 1083.36"/>
        <rect class="cls-32" x="1377.39" y="1156.79" width="84.35" height="161.75"/>
        <rect class="cls-23" x="1483.72" y="927.82" width="84.32" height="390.73"/>
        <rect class="cls-26" x="1590.01" y="1068.21" width="84.29" height="250.33"/>
        <polygon class="cls-5" points="1383.53 1164.07 1461.74 1164.07 1461.74 1156.79 1377.39 1156.79 1377.39 1318.54 1383.53 1318.54 1383.53 1164.07"/>
        <polygon class="cls-3" points="1489.86 935.09 1568.04 935.09 1568.04 927.82 1483.72 927.82 1483.72 1318.54 1489.86 1318.54 1489.86 935.09"/>
        <polygon class="cls-1" points="1596.15 1075.49 1674.31 1075.49 1674.31 1068.21 1590.01 1068.21 1590.01 1318.54 1596.15 1318.54 1596.15 1075.49"/>
        <path class="cls-14" d="M1777.49,460.74H222.5c-7.56,0-11.63,4.62-11.63,6.54v946.17c0,1.95,4.07,6.56,11.63,6.56h1554.99c7.56,0,11.68-4.61,11.68-6.56V467.28c0-1.92-4.12-6.54-11.68-6.54ZM1775.2,1406.03H224.85V474.81l1550.35-.1v931.32Z"/>
        <rect class="cls-25" x="210.88" y="575.6" width="1578.3" height="170.72"/>
        <rect class="cls-27" x="260.31" y="630.72" width="276.28" height="71.12"/>
        <rect class="cls-28" x="678.16" y="630.72" width="537.03" height="71.12"/>
        <rect class="cls-33" x="1315.62" y="630.72" width="374.14" height="71.12"/>
        <rect class="cls-5" x="210.88" y="575.6" width="1578.3" height="10.74"/>
        <rect class="cls-15" x="210.88" y="731.26" width="1578.3" height="15.05"/>
        <rect class="cls-16" x="1775.2" y="575.6" width="13.98" height="170.72"/>
        <rect class="cls-16" x="210.88" y="575.6" width="13.98" height="170.72"/>
        <path class="cls-2" d="M222.5,347.41c-40.95,0-74.06,33.89-74.06,75.77v1087.52c-38.84,6.22-68.33,35.3-68.33,70.33,0,39.49,37.56,71.56,83.83,71.56h397.78L1355.14,347.41H222.5Z"/>
      </g>
    </g>
  </g>
</svg>