<?xml version="1.0" encoding="UTF-8"?>
<svg id="Capa_1" data-name="Capa 1" xmlns="http://www.w3.org/2000/svg" xmlns:xlink="http://www.w3.org/1999/xlink" viewBox="0 0 2000 2000">
  <defs>
    <style>
      .cls-1 {
        fill: url(#Nueva_muestra_de_degradado_1-9);
      }

      .cls-2 {
        fill: url(#Nueva_muestra_de_degradado_1-2);
      }

      .cls-3 {
        fill: url(#Nueva_muestra_de_degradado_1-4);
      }

      .cls-4 {
        fill: url(#Nueva_muestra_de_degradado_1-8);
      }

      .cls-5 {
        fill: url(#Nueva_muestra_de_degradado_1-3);
      }

      .cls-6 {
        fill: url(#Nueva_muestra_de_degradado_1-5);
      }

      .cls-7 {
        fill: url(#Nueva_muestra_de_degradado_1-7);
      }

      .cls-8 {
        fill: url(#Nueva_muestra_de_degradado_1-6);
      }

      .cls-9 {
        fill: url(#Nueva_muestra_de_degradado_1-12);
      }

      .cls-10 {
        fill: url(#Nueva_muestra_de_degradado_1-11);
      }

      .cls-11 {
        fill: url(#Nueva_muestra_de_degradado_1-10);
      }

      .cls-12 {
        fill: url(#Nueva_muestra_de_degradado_1);
      }
    </style>
    <linearGradient id="Nueva_muestra_de_degradado_1" data-name="Nueva muestra de degradado 1" x1="-159.96" y1="1326.6" x2="1538.86" y2="156.72" gradientUnits="userSpaceOnUse">
      <stop offset="0" stop-color="#00408b"/>
      <stop offset=".34" stop-color="#009ac1"/>
      <stop offset=".4" stop-color="#099cb2"/>
      <stop offset=".53" stop-color="#22a28b"/>
      <stop offset=".71" stop-color="#4bab4c"/>
      <stop offset=".91" stop-color="#7eb700"/>
    </linearGradient>
    <linearGradient id="Nueva_muestra_de_degradado_1-2" data-name="Nueva muestra de degradado 1" x1="-159.96" y1="1326.6" x2="1538.86" y2="156.71" xlink:href="#Nueva_muestra_de_degradado_1"/>
    <linearGradient id="Nueva_muestra_de_degradado_1-3" data-name="Nueva muestra de degradado 1" x1="39.05" y1="1615.58" x2="1737.86" y2="445.7" xlink:href="#Nueva_muestra_de_degradado_1"/>
    <linearGradient id="Nueva_muestra_de_degradado_1-4" data-name="Nueva muestra de degradado 1" x1="39.04" y1="1615.57" x2="1737.86" y2="445.69" xlink:href="#Nueva_muestra_de_degradado_1"/>
    <linearGradient id="Nueva_muestra_de_degradado_1-5" data-name="Nueva muestra de degradado 1" x1="238.05" y1="1904.56" x2="1936.87" y2="734.68" xlink:href="#Nueva_muestra_de_degradado_1"/>
    <linearGradient id="Nueva_muestra_de_degradado_1-6" data-name="Nueva muestra de degradado 1" x1="238.04" y1="1904.55" x2="1936.86" y2="734.67" xlink:href="#Nueva_muestra_de_degradado_1"/>
    <linearGradient id="Nueva_muestra_de_degradado_1-7" data-name="Nueva muestra de degradado 1" x1="293.42" y1="1984.96" x2="1992.23" y2="815.08" xlink:href="#Nueva_muestra_de_degradado_1"/>
    <linearGradient id="Nueva_muestra_de_degradado_1-8" data-name="Nueva muestra de degradado 1" x1="293.41" y1="1984.95" x2="1992.23" y2="815.07" xlink:href="#Nueva_muestra_de_degradado_1"/>
    <linearGradient id="Nueva_muestra_de_degradado_1-9" data-name="Nueva muestra de degradado 1" x1="492.42" y1="2273.94" x2="2191.24" y2="1104.06" xlink:href="#Nueva_muestra_de_degradado_1"/>
    <linearGradient id="Nueva_muestra_de_degradado_1-10" data-name="Nueva muestra de degradado 1" x1="492.42" y1="2273.93" x2="2191.23" y2="1104.05" xlink:href="#Nueva_muestra_de_degradado_1"/>
    <linearGradient id="Nueva_muestra_de_degradado_1-11" data-name="Nueva muestra de degradado 1" x1="81.27" y1="1676.89" x2="1780.09" y2="507.01" xlink:href="#Nueva_muestra_de_degradado_1"/>
    <linearGradient id="Nueva_muestra_de_degradado_1-12" data-name="Nueva muestra de degradado 1" x1="81.27" y1="1676.89" x2="1780.09" y2="507.01" xlink:href="#Nueva_muestra_de_degradado_1"/>
  </defs>
  <g>
    <path class="cls-12" d="M1279.86,726.7H210.92c-13.03,0-23.57-10.56-23.57-23.57s10.54-23.57,23.57-23.57h1068.94c13.03,0,23.57,10.56,23.57,23.57s-10.54,23.57-23.57,23.57Z"/>
    <path class="cls-2" d="M1279.86,735.53H210.92c-17.86,0-32.4-14.55-32.4-32.4s14.55-32.39,32.4-32.39h1068.94c17.86,0,32.39,14.54,32.39,32.39s-14.54,32.4-32.39,32.4ZM210.92,688.4c-8.13,0-14.73,6.6-14.73,14.73s6.6,14.73,14.73,14.73h1068.94c8.13,0,14.73-6.61,14.73-14.73s-6.6-14.73-14.73-14.73H210.92Z"/>
  </g>
  <g>
    <path class="cls-5" d="M1279.86,1152.72H210.92c-13.03,0-23.57-10.55-23.57-23.57s10.54-23.56,23.57-23.56h1068.94c13.03,0,23.57,10.55,23.57,23.56s-10.54,23.57-23.57,23.57Z"/>
    <path class="cls-3" d="M1279.86,1161.55H210.92c-17.86,0-32.4-14.55-32.4-32.4s14.55-32.39,32.4-32.39h1068.94c17.86,0,32.39,14.54,32.39,32.39s-14.54,32.4-32.39,32.4ZM210.92,1114.42c-8.13,0-14.73,6.61-14.73,14.73s6.6,14.73,14.73,14.73h1068.94c8.13,0,14.73-6.6,14.73-14.73s-6.6-14.73-14.73-14.73H210.92Z"/>
  </g>
  <g>
    <path class="cls-6" d="M1279.86,1578.75H210.92c-13.03,0-23.57-10.56-23.57-23.57s10.54-23.57,23.57-23.57h1068.94c13.03,0,23.57,10.56,23.57,23.57s-10.54,23.57-23.57,23.57Z"/>
    <path class="cls-8" d="M1279.86,1587.57H210.92c-17.86,0-32.4-14.54-32.4-32.39s14.55-32.4,32.4-32.4h1068.94c17.86,0,32.39,14.55,32.39,32.4s-14.54,32.39-32.39,32.39ZM210.92,1540.44c-8.13,0-14.73,6.61-14.73,14.73s6.6,14.73,14.73,14.73h1068.94c8.13,0,14.73-6.61,14.73-14.73s-6.6-14.73-14.73-14.73H210.92Z"/>
  </g>
  <g>
    <path class="cls-7" d="M1567.08,1152.72h-61.86c-13.02,0-23.57-10.55-23.57-23.57s10.55-23.56,23.57-23.56h61.86c13.02,0,23.56,10.55,23.56,23.56s-10.54,23.57-23.56,23.57Z"/>
    <path class="cls-4" d="M1567.08,1161.55h-61.86c-17.86,0-32.39-14.55-32.39-32.4s14.54-32.39,32.39-32.39h61.86c17.86,0,32.39,14.54,32.39,32.39s-14.54,32.4-32.39,32.4ZM1505.22,1114.42c-8.12,0-14.73,6.61-14.73,14.73s6.61,14.73,14.73,14.73h61.86c8.12,0,14.73-6.6,14.73-14.73s-6.61-14.73-14.73-14.73h-61.86Z"/>
  </g>
  <g>
    <path class="cls-1" d="M1567.08,1578.75h-61.86c-13.02,0-23.57-10.56-23.57-23.57s10.55-23.57,23.57-23.57h61.86c13.02,0,23.56,10.56,23.56,23.57s-10.54,23.57-23.56,23.57Z"/>
    <path class="cls-11" d="M1567.08,1587.57h-61.86c-17.86,0-32.39-14.54-32.39-32.39s14.54-32.4,32.39-32.4h61.86c17.86,0,32.39,14.55,32.39,32.4s-14.54,32.39-32.39,32.39ZM1505.22,1540.44c-8.12,0-14.73,6.61-14.73,14.73s6.61,14.73,14.73,14.73h61.86c8.12,0,14.73-6.61,14.73-14.73s-6.61-14.73-14.73-14.73h-61.86Z"/>
  </g>
  <g>
    <path class="cls-10" d="M1545.79,742.58c-5.77,0-11.57-2.12-16.1-6.37l-62.36-58.35c-9.5-8.88-9.99-23.8-1.11-33.3,8.91-9.54,23.79-10,33.32-1.11l45.77,42.82,259.78-258.15c9.23-9.18,24.14-9.11,33.32.11,9.19,9.23,9.13,24.16-.09,33.33l-275.92,274.16c-4.6,4.56-10.61,6.85-16.62,6.85Z"/>
    <path class="cls-9" d="M1545.79,751.41c-8.24,0-16.1-3.11-22.14-8.72l-62.36-58.39c-13.05-12.16-13.74-32.72-1.54-45.76,5.92-6.33,13.92-9.99,22.55-10.26,8.81-.58,16.91,2.81,23.27,8.71l39.55,37.02,253.74-252.15c6.12-6.07,14.2-9.43,22.83-9.43,8.69.65,16.84,3.43,22.99,9.58,6.11,6.14,9.45,14.29,9.43,22.96-.03,8.65-3.43,16.78-9.55,22.87l-275.92,274.15c-6.15,6.07-14.25,9.41-22.85,9.41ZM1483.43,645.92h-.52c-3.92.14-7.55,1.8-10.22,4.68-5.57,5.93-5.24,15.28.67,20.8l62.35,58.38c5.59,5.22,15.02,5.08,20.48-.32l275.9-274.15c2.81-2.79,4.32-6.46,4.34-10.4.03-3.93-1.52-7.63-4.28-10.42-2.79-2.81-6.49-4.35-10.42-4.38h-.04c-3.91,0-7.6,1.52-10.36,4.29l-259.79,258.16c-3.38,3.35-8.79,3.45-12.26.18l-45.77-42.82c-2.78-2.57-6.35-3.98-10.08-3.98Z"/>
  </g>
</svg>