<?xml version="1.0" encoding="UTF-8"?>
<svg xmlns="http://www.w3.org/2000/svg" xmlns:xlink="http://www.w3.org/1999/xlink" viewBox="0 0 2000 2000">
  <defs>
    <style>
      .cls-1 {
        fill: url(#linear-gradient-8);
      }

      .cls-2 {
        fill: url(#linear-gradient-7);
      }

      .cls-3 {
        fill: url(#linear-gradient-5);
      }

      .cls-4 {
        fill: url(#linear-gradient-6);
      }

      .cls-5 {
        fill: url(#linear-gradient-9);
      }

      .cls-6 {
        fill: url(#linear-gradient-4);
      }

      .cls-7 {
        fill: url(#linear-gradient-3);
      }

      .cls-8 {
        fill: url(#linear-gradient-2);
      }

      .cls-9 {
        fill: url(#linear-gradient);
      }

      .cls-10 {
        fill: #ebc68d;
      }

      .cls-10, .cls-11, .cls-12 {
        mix-blend-mode: multiply;
      }

      .cls-13 {
        isolation: isolate;
      }

      .cls-11 {
        fill: #9fcbd6;
      }

      .cls-14 {
        opacity: .2;
      }

      .cls-14, .cls-15 {
        fill: #ff832b;
      }

      .cls-14, .cls-15, .cls-16 {
        mix-blend-mode: screen;
      }

      .cls-15 {
        opacity: .8;
      }

      .cls-17 {
        fill: url(#linear-gradient-10);
      }

      .cls-18 {
        fill: url(#linear-gradient-11);
      }

      .cls-19 {
        fill: url(#linear-gradient-12);
      }

      .cls-20 {
        fill: url(#linear-gradient-13);
      }

      .cls-21 {
        fill: url(#linear-gradient-14);
      }

      .cls-22 {
        fill: url(#linear-gradient-15);
      }

      .cls-23 {
        fill: url(#linear-gradient-16);
      }

      .cls-24 {
        fill: url(#linear-gradient-17);
      }

      .cls-25 {
        fill: url(#linear-gradient-18);
      }

      .cls-12 {
        fill: #c0dde4;
      }

      .cls-16 {
        fill: #45778a;
        opacity: .5;
      }
    </style>
    <linearGradient id="linear-gradient" x1="392.02" y1="1000" x2="1607.98" y2="1000" gradientUnits="userSpaceOnUse">
      <stop offset="0" stop-color="#286891"/>
      <stop offset=".26" stop-color="#235f87"/>
      <stop offset=".69" stop-color="#18496c"/>
      <stop offset="1" stop-color="#0e3655"/>
    </linearGradient>
    <linearGradient id="linear-gradient-2" x1="589.42" y1="6.02" x2="1410.58" y2="827.18" gradientUnits="userSpaceOnUse">
      <stop offset="0" stop-color="#fd6120"/>
      <stop offset=".01" stop-color="#fb5f1f"/>
      <stop offset=".32" stop-color="#ea4d1b"/>
      <stop offset=".64" stop-color="#e04218"/>
      <stop offset="1" stop-color="#dd3f18"/>
    </linearGradient>
    <linearGradient id="linear-gradient-3" x1="711.96" y1="101.83" x2="1288.08" y2="677.95" gradientUnits="userSpaceOnUse">
      <stop offset="0" stop-color="#fafafa"/>
      <stop offset="1" stop-color="#cdeffa"/>
    </linearGradient>
    <linearGradient id="linear-gradient-4" x1="502.83" y1="819.3" x2="690.59" y2="1007.06" xlink:href="#linear-gradient-3"/>
    <linearGradient id="linear-gradient-5" x1="772.04" y1="819.3" x2="959.8" y2="1007.06" xlink:href="#linear-gradient-3"/>
    <linearGradient id="linear-gradient-6" x1="1041.26" y1="819.3" x2="1229.01" y2="1007.06" xlink:href="#linear-gradient-3"/>
    <linearGradient id="linear-gradient-7" x1="1310.47" y1="819.3" x2="1498.23" y2="1007.06" xlink:href="#linear-gradient-3"/>
    <linearGradient id="linear-gradient-8" x1="502.83" y1="1142.59" x2="690.59" y2="1330.35" xlink:href="#linear-gradient-3"/>
    <linearGradient id="linear-gradient-9" x1="772.04" y1="1142.59" x2="959.8" y2="1330.35" xlink:href="#linear-gradient-3"/>
    <linearGradient id="linear-gradient-10" x1="1041.26" y1="1142.59" x2="1229.01" y2="1330.35" xlink:href="#linear-gradient-3"/>
    <linearGradient id="linear-gradient-11" x1="502.83" y1="1465.88" x2="690.59" y2="1653.63" xlink:href="#linear-gradient-3"/>
    <linearGradient id="linear-gradient-12" x1="772.04" y1="1465.88" x2="959.8" y2="1653.63" xlink:href="#linear-gradient-3"/>
    <linearGradient id="linear-gradient-13" x1="1041.26" y1="1465.88" x2="1229.01" y2="1653.63" xlink:href="#linear-gradient-3"/>
    <linearGradient id="linear-gradient-14" x1="1229.65" y1="1223.41" x2="1579.05" y2="1572.81" xlink:href="#linear-gradient-3"/>
    <linearGradient id="linear-gradient-15" x1="1068.62" y1="379.31" x2="1141.45" y2="379.31" xlink:href="#linear-gradient"/>
    <linearGradient id="linear-gradient-16" x1="1159.84" y1="439.67" x2="1189.89" y2="439.67" xlink:href="#linear-gradient"/>
    <linearGradient id="linear-gradient-17" x1="1203.93" y1="377.06" x2="1279.75" y2="377.06" xlink:href="#linear-gradient"/>
    <linearGradient id="linear-gradient-18" x1="1294.65" y1="377.66" x2="1387.3" y2="377.66" xlink:href="#linear-gradient"/>
  </defs>
  <g class="cls-13">
    <g id="Capa_1" data-name="Capa 1">
      <g>
        <path class="cls-9" d="M1607.98,1754.42c0,52.58-39.05,95.58-86.87,95.58H478.89c-47.82,0-86.87-43-86.87-95.58V245.58c0-52.58,39.05-95.58,86.87-95.58h1042.23c47.82,0,86.87,43,86.87,95.58v1508.85Z"/>
        <path class="cls-11" d="M1521.11,1794.25H478.89c-47.82,0-86.87-43-86.87-95.58v55.75c0,52.58,39.05,95.58,86.87,95.58h1042.23c47.82,0,86.87-43,86.87-95.58v-55.75c0,52.58-39.05,95.58-86.87,95.58Z"/>
        <path class="cls-8" d="M1521.11,150H478.89c-47.82,0-86.87,43-86.87,95.58v384.2h1215.96V245.58c0-52.58-39.05-95.58-86.87-95.58Z"/>
        <path class="cls-15" d="M1521.11,150H478.89c-47.82,0-86.87,43-86.87,95.58v24.95c0-52.58,39.05-95.58,86.87-95.58h1042.23c47.82,0,86.87,43,86.87,95.58v-24.95c0-52.58-39.05-95.58-86.87-95.58Z"/>
        <rect class="cls-14" x="512.67" y="240.29" width="974.68" height="299.21"/>
        <rect class="cls-7" x="541.64" y="272.15" width="916.75" height="235.49"/>
        <path class="cls-12" d="M541.64,272.15v235.49h916.75v-235.49h-916.75ZM1443.92,491.71h-887.85v-203.63h887.85v203.63Z"/>
        <path class="cls-11" d="M532.37,831.14h155.18c12.71,0,23.02,10.32,23.02,23.02v155.19c0,12.71-10.32,23.02-23.02,23.02h-155.19c-12.71,0-23.02-10.32-23.02-23.02v-155.19c0-12.71,10.32-23.02,23.02-23.02Z"/>
        <path class="cls-11" d="M801.58,831.14h155.18c12.71,0,23.02,10.32,23.02,23.02v155.19c0,12.71-10.32,23.02-23.02,23.02h-155.19c-12.71,0-23.02-10.32-23.02-23.02v-155.19c0-12.71,10.32-23.02,23.02-23.02Z"/>
        <path class="cls-11" d="M1070.79,831.14h155.19c12.71,0,23.02,10.32,23.02,23.02v155.19c0,12.71-10.32,23.02-23.02,23.02h-155.19c-12.71,0-23.02-10.32-23.02-23.02v-155.19c0-12.71,10.32-23.02,23.02-23.02Z"/>
        <path class="cls-11" d="M1340.01,831.14h155.18c12.71,0,23.02,10.32,23.02,23.02v155.19c0,12.71-10.32,23.02-23.02,23.02h-155.19c-12.71,0-23.02-10.32-23.02-23.02v-155.19c0-12.71,10.32-23.02,23.02-23.02Z"/>
        <path class="cls-11" d="M532.37,1154.42h155.19c12.71,0,23.02,10.32,23.02,23.02v155.18c0,12.71-10.32,23.02-23.02,23.02h-155.19c-12.71,0-23.02-10.32-23.02-23.02v-155.19c0-12.71,10.32-23.02,23.02-23.02Z"/>
        <path class="cls-11" d="M801.58,1154.42h155.19c12.71,0,23.02,10.32,23.02,23.02v155.19c0,12.71-10.32,23.02-23.02,23.02h-155.18c-12.71,0-23.02-10.32-23.02-23.02v-155.19c0-12.71,10.32-23.02,23.02-23.02Z"/>
        <path class="cls-11" d="M1070.79,1154.42h155.19c12.71,0,23.02,10.32,23.02,23.02v155.18c0,12.71-10.32,23.02-23.02,23.02h-155.19c-12.71,0-23.02-10.32-23.02-23.02v-155.19c0-12.71,10.32-23.02,23.02-23.02Z"/>
        <path class="cls-11" d="M532.37,1477.71h155.18c12.71,0,23.02,10.32,23.02,23.02v155.19c0,12.71-10.32,23.02-23.02,23.02h-155.19c-12.71,0-23.02-10.32-23.02-23.02v-155.19c0-12.71,10.32-23.02,23.02-23.02Z"/>
        <path class="cls-11" d="M801.58,1477.71h155.18c12.71,0,23.02,10.32,23.02,23.02v155.19c0,12.71-10.32,23.02-23.02,23.02h-155.19c-12.71,0-23.02-10.32-23.02-23.02v-155.19c0-12.71,10.32-23.02,23.02-23.02Z"/>
        <path class="cls-11" d="M1070.8,1477.71h155.18c12.71,0,23.02,10.32,23.02,23.02v155.19c0,12.71-10.32,23.02-23.02,23.02h-155.19c-12.71,0-23.02-10.32-23.02-23.02v-155.19c0-12.71,10.32-23.02,23.02-23.02Z"/>
        <path class="cls-11" d="M1495.2,1154.42h-155.19c-12.73,0-23.02,10.3-23.02,23.02v478.47c0,12.72,10.3,23.02,23.02,23.02h155.19c12.72,0,23.02-10.3,23.02-23.02v-478.47c0-12.72-10.3-23.02-23.02-23.02Z"/>
        <path class="cls-6" d="M519.12,812.56h155.18c12.71,0,23.02,10.32,23.02,23.02v155.19c0,12.71-10.32,23.02-23.02,23.02h-155.19c-12.71,0-23.02-10.32-23.02-23.02v-155.19c0-12.71,10.32-23.02,23.02-23.02Z"/>
        <rect class="cls-3" x="765.3" y="812.56" width="201.23" height="201.24" rx="23.02" ry="23.02"/>
        <path class="cls-4" d="M1057.54,812.56h155.19c12.71,0,23.02,10.32,23.02,23.02v155.19c0,12.71-10.32,23.02-23.02,23.02h-155.18c-12.71,0-23.02-10.32-23.02-23.02v-155.19c0-12.71,10.32-23.02,23.02-23.02Z"/>
        <path class="cls-2" d="M1326.76,812.56h155.19c12.71,0,23.02,10.32,23.02,23.02v155.19c0,12.71-10.32,23.02-23.02,23.02h-155.18c-12.71,0-23.02-10.32-23.02-23.02v-155.19c0-12.71,10.32-23.02,23.02-23.02Z"/>
        <path class="cls-1" d="M519.11,1135.85h155.19c12.71,0,23.02,10.32,23.02,23.02v155.18c0,12.71-10.32,23.02-23.02,23.02h-155.19c-12.71,0-23.02-10.32-23.02-23.02v-155.19c0-12.71,10.32-23.02,23.02-23.02Z"/>
        <path class="cls-5" d="M788.33,1135.85h155.19c12.71,0,23.02,10.32,23.02,23.02v155.19c0,12.71-10.32,23.02-23.02,23.02h-155.18c-12.71,0-23.02-10.32-23.02-23.02v-155.19c0-12.71,10.32-23.02,23.02-23.02Z"/>
        <path class="cls-17" d="M1057.54,1135.85h155.19c12.71,0,23.02,10.32,23.02,23.02v155.19c0,12.71-10.32,23.02-23.02,23.02h-155.19c-12.71,0-23.02-10.32-23.02-23.02v-155.19c0-12.71,10.32-23.02,23.02-23.02Z"/>
        <path class="cls-18" d="M519.12,1459.14h155.18c12.71,0,23.02,10.32,23.02,23.02v155.19c0,12.71-10.32,23.02-23.02,23.02h-155.19c-12.71,0-23.02-10.32-23.02-23.02v-155.19c0-12.71,10.32-23.02,23.02-23.02Z"/>
        <path class="cls-19" d="M788.33,1459.14h155.18c12.71,0,23.02,10.32,23.02,23.02v155.19c0,12.71-10.32,23.02-23.02,23.02h-155.19c-12.71,0-23.02-10.32-23.02-23.02v-155.19c0-12.71,10.32-23.02,23.02-23.02Z"/>
        <path class="cls-20" d="M1057.54,1459.14h155.19c12.71,0,23.02,10.32,23.02,23.02v155.19c0,12.71-10.32,23.02-23.02,23.02h-155.19c-12.71,0-23.02-10.32-23.02-23.02v-155.18c0-12.71,10.32-23.02,23.02-23.02Z"/>
        <path class="cls-21" d="M1481.94,1135.85h-155.19c-12.72,0-23.02,10.3-23.02,23.02v478.47c0,12.72,10.3,23.02,23.02,23.02h155.19c12.73,0,23.02-10.3,23.02-23.02v-478.47c0-12.73-10.3-23.02-23.02-23.02Z"/>
        <g>
          <path class="cls-22" d="M1096.87,422.17c7.19,0,12.63-1.9,16.43-5.72,3.73-3.83,5.63-8.43,5.63-13.88,0-6.59-1.96-11.45-5.91-14.59-3.92-3.11-10.14-4.67-18.55-4.67h-12.5v-11.98l21-28.62,9.86-7.84-13.69,1.59h-29.15v-19.07h66.27v12.29l-24.45,32.82-7.62,4.67v.87l7.28-1.06c4.05.37,7.87,1.28,11.54,2.77,3.64,1.53,6.81,3.67,9.52,6.53,2.74,2.83,4.92,6.35,6.53,10.48,1.62,4.17,2.4,8.96,2.4,14.41,0,6.84-1.12,12.72-3.36,17.7-2.27,4.98-5.38,9.15-9.37,12.48-3.98,3.36-8.68,5.85-14,7.47-5.32,1.62-11.05,2.43-17.18,2.43-5.07,0-10.3-.47-15.74-1.37-5.44-.93-9.83-2.27-13.19-4.01l6.04-18.73c3.05,1.49,6.35,2.74,10.02,3.61,3.61.93,7.68,1.43,12.2,1.43Z"/>
          <path class="cls-23" d="M1160.74,427.74c0-3.95,1.27-7.06,3.92-9.4,2.55-2.3,5.79-3.49,9.58-3.49,4.89,0,8.71,1.62,11.45,4.89,2.77,3.23,4.2,7.5,4.2,12.82s-.81,9.68-2.46,13.47c-1.62,3.73-3.61,6.84-5.97,9.33-2.4,2.52-4.92,4.45-7.62,5.91-2.74,1.43-5.19,2.52-7.37,3.21l-6.63-9.33c3.14-1.31,5.85-3.39,8.15-6.25,2.34-2.89,3.58-5.97,3.83-9.21-2.64.34-5.16-.47-7.53-2.46-2.4-1.93-3.55-5.1-3.55-9.49Z"/>
          <path class="cls-24" d="M1210.52,419.74h24.11v-68.54l2.58-11.79-8.31,10.24-15.43,10.58-9.55-13,39.54-31.92h12.66v104.45h23.62v19.07h-69.23v-19.07Z"/>
          <path class="cls-25" d="M1387.3,405h-19.1v33.82h-20.97v-33.82h-52.58v-12.88l55.01-75.6h18.54v70.41h19.1v18.08ZM1347.23,360.41l1.53-14.59h-.68l-5.88,12.48-18.04,23.43-8.68,6.63,11.14-1.43h20.63v-26.51Z"/>
        </g>
        <rect class="cls-16" x="392.02" y="629.78" width="1215.96" height="26.6"/>
        <rect class="cls-10" x="392.02" y="602.12" width="1215.96" height="27.66"/>
      </g>
    </g>
  </g>
</svg>